<mxfile host="app.diagrams.net" modified="2023-03-16T04:20:46.389Z" agent="5.0 (Windows NT 10.0; Win64; x64) AppleWebKit/537.36 (KHTML, like Gecko) Chrome/110.0.0.0 Safari/537.36" etag="_v-7zEu7nCvbGnplQtki" version="15.5.9" type="github">
  <diagram id="pKTKQapKF5vKtPZP_axJ" name="Page-1">
    <mxGraphModel dx="2580" dy="802" grid="1" gridSize="10" guides="1" tooltips="1" connect="1" arrows="1" fold="1" page="1" pageScale="1" pageWidth="850" pageHeight="1100" math="0" shadow="0">
      <root>
        <mxCell id="0" />
        <mxCell id="1" parent="0" />
        <mxCell id="KVfkaGWCKoNt7b944-go-1" value="userID" style="html=1;" vertex="1" parent="1">
          <mxGeometry x="80" y="160" width="80" height="40" as="geometry" />
        </mxCell>
        <mxCell id="KVfkaGWCKoNt7b944-go-2" value="picture" style="html=1;" vertex="1" parent="1">
          <mxGeometry x="160" y="160" width="80" height="40" as="geometry" />
        </mxCell>
        <mxCell id="KVfkaGWCKoNt7b944-go-3" value="name" style="html=1;" vertex="1" parent="1">
          <mxGeometry x="240" y="160" width="80" height="40" as="geometry" />
        </mxCell>
        <mxCell id="KVfkaGWCKoNt7b944-go-4" value="email" style="html=1;" vertex="1" parent="1">
          <mxGeometry x="320" y="160" width="80" height="40" as="geometry" />
        </mxCell>
        <mxCell id="KVfkaGWCKoNt7b944-go-7" value="&lt;b&gt;Users&lt;/b&gt;" style="text;html=1;strokeColor=none;fillColor=none;align=center;verticalAlign=middle;whiteSpace=wrap;rounded=0;" vertex="1" parent="1">
          <mxGeometry x="10" y="160" width="60" height="30" as="geometry" />
        </mxCell>
        <mxCell id="KVfkaGWCKoNt7b944-go-8" value="customerID" style="html=1;" vertex="1" parent="1">
          <mxGeometry x="80" y="240" width="80" height="40" as="geometry" />
        </mxCell>
        <mxCell id="KVfkaGWCKoNt7b944-go-13" value="&lt;b&gt;Customers&lt;/b&gt;" style="text;html=1;strokeColor=none;fillColor=none;align=center;verticalAlign=middle;whiteSpace=wrap;rounded=0;" vertex="1" parent="1">
          <mxGeometry x="10" y="240" width="60" height="30" as="geometry" />
        </mxCell>
        <mxCell id="KVfkaGWCKoNt7b944-go-16" value="vendorID" style="html=1;" vertex="1" parent="1">
          <mxGeometry x="80" y="320" width="80" height="40" as="geometry" />
        </mxCell>
        <mxCell id="KVfkaGWCKoNt7b944-go-17" value="categories" style="html=1;" vertex="1" parent="1">
          <mxGeometry x="160" y="320" width="80" height="40" as="geometry" />
        </mxCell>
        <mxCell id="KVfkaGWCKoNt7b944-go-18" value="menu" style="html=1;" vertex="1" parent="1">
          <mxGeometry x="240" y="320" width="80" height="40" as="geometry" />
        </mxCell>
        <mxCell id="KVfkaGWCKoNt7b944-go-19" value="storeName" style="html=1;" vertex="1" parent="1">
          <mxGeometry x="320" y="320" width="80" height="40" as="geometry" />
        </mxCell>
        <mxCell id="KVfkaGWCKoNt7b944-go-21" value="&lt;b&gt;Vendors&lt;/b&gt;" style="text;html=1;strokeColor=none;fillColor=none;align=center;verticalAlign=middle;whiteSpace=wrap;rounded=0;" vertex="1" parent="1">
          <mxGeometry x="10" y="320" width="60" height="30" as="geometry" />
        </mxCell>
        <mxCell id="KVfkaGWCKoNt7b944-go-22" value="description" style="html=1;" vertex="1" parent="1">
          <mxGeometry x="400" y="320" width="80" height="40" as="geometry" />
        </mxCell>
        <mxCell id="KVfkaGWCKoNt7b944-go-23" value="location" style="html=1;" vertex="1" parent="1">
          <mxGeometry x="480" y="320" width="80" height="40" as="geometry" />
        </mxCell>
        <mxCell id="KVfkaGWCKoNt7b944-go-31" value="vendorID" style="html=1;" vertex="1" parent="1">
          <mxGeometry x="80" y="400" width="80" height="40" as="geometry" />
        </mxCell>
        <mxCell id="KVfkaGWCKoNt7b944-go-32" value="categoryID" style="html=1;" vertex="1" parent="1">
          <mxGeometry x="160" y="400" width="80" height="40" as="geometry" />
        </mxCell>
        <mxCell id="KVfkaGWCKoNt7b944-go-33" value="threadID" style="html=1;" vertex="1" parent="1">
          <mxGeometry x="240" y="400" width="80" height="40" as="geometry" />
        </mxCell>
        <mxCell id="KVfkaGWCKoNt7b944-go-36" value="&lt;b&gt;MessageThreads&lt;/b&gt;" style="text;html=1;strokeColor=none;fillColor=none;align=center;verticalAlign=middle;whiteSpace=wrap;rounded=0;" vertex="1" parent="1">
          <mxGeometry x="-30" y="400" width="100" height="30" as="geometry" />
        </mxCell>
        <mxCell id="KVfkaGWCKoNt7b944-go-52" value="threadID" style="html=1;" vertex="1" parent="1">
          <mxGeometry x="80" y="480" width="80" height="40" as="geometry" />
        </mxCell>
        <mxCell id="KVfkaGWCKoNt7b944-go-53" value="messageID" style="html=1;" vertex="1" parent="1">
          <mxGeometry x="160" y="480" width="80" height="40" as="geometry" />
        </mxCell>
        <mxCell id="KVfkaGWCKoNt7b944-go-54" value="timeSent" style="html=1;" vertex="1" parent="1">
          <mxGeometry x="240" y="480" width="80" height="40" as="geometry" />
        </mxCell>
        <mxCell id="KVfkaGWCKoNt7b944-go-55" value="content" style="html=1;" vertex="1" parent="1">
          <mxGeometry x="320" y="480" width="80" height="40" as="geometry" />
        </mxCell>
        <mxCell id="KVfkaGWCKoNt7b944-go-57" value="&lt;b&gt;Messages&lt;/b&gt;" style="text;html=1;strokeColor=none;fillColor=none;align=center;verticalAlign=middle;whiteSpace=wrap;rounded=0;" vertex="1" parent="1">
          <mxGeometry x="-20" y="480" width="90" height="30" as="geometry" />
        </mxCell>
        <mxCell id="KVfkaGWCKoNt7b944-go-58" value="sender" style="html=1;" vertex="1" parent="1">
          <mxGeometry x="400" y="480" width="80" height="40" as="geometry" />
        </mxCell>
        <mxCell id="KVfkaGWCKoNt7b944-go-68" value="isRegistered" style="html=1;" vertex="1" parent="1">
          <mxGeometry x="400" y="160" width="80" height="40" as="geometry" />
        </mxCell>
        <mxCell id="KVfkaGWCKoNt7b944-go-69" value="profileType" style="html=1;" vertex="1" parent="1">
          <mxGeometry x="480" y="160" width="80" height="40" as="geometry" />
        </mxCell>
      </root>
    </mxGraphModel>
  </diagram>
</mxfile>
